<svg width="3000" height="1000" viewBox="0 0 3000 1000" fill="none" xmlns="http://www.w3.org/2000/svg">
<g clip-path="url(#clip0_6_91)">
<mask id="mask0_6_91" style="mask-type:luminance" maskUnits="userSpaceOnUse" x="0" y="4" width="761" height="985">
<path d="M0 4H761V989H0V4Z" fill="white"/>
</mask>
<g mask="url(#mask0_6_91)">
<path d="M0.088623 989C13.4688 885.38 36.4376 785.156 103.151 700.656C146.724 645.469 203.052 606.714 265.417 576.047C283.688 567.057 302.531 559.198 321.287 551.229C326.333 549.083 332.599 543.313 336.896 547.328C340.651 550.844 336.422 558.12 335.276 563.568C330.104 588.073 327.656 612.729 330.271 637.719C337.708 708.615 392.495 747.005 461.688 728.734C500 718.615 522.636 691.38 531.62 653.979C537.859 627.99 524.927 606.823 505.516 590.807C459.651 552.958 407.448 534.62 347.386 543.047C345.677 543.292 343.906 543.078 340.141 543.078C343.651 534.859 346.5 527.292 350.026 520.042C376.261 466.109 411.089 421.047 471.484 402.307C501.859 392.88 533.406 391.057 564.682 387.896C629.396 381.349 656.568 351.411 669.651 291.104C681.542 236.318 684.505 180.901 664.38 126.891C643.417 70.651 601.297 43.0937 542.458 39.8802C510.771 38.151 494.688 58.4375 502.266 89.4167C502.886 91.9427 503.339 94.5104 503.979 97.5625C492.511 98.7865 480.672 95.1562 471.313 105.547C466.5 110.885 465.172 102.849 463.807 100.234C446.656 67.4948 461.505 31.3437 498.401 15.3698C560.787 -11.6458 644.042 10.9687 687.969 67.375C735.531 128.443 749.224 199.203 745.031 274.5C741.568 336.786 721.057 393.318 684.859 444.167C679.719 451.385 675.943 459.615 670.516 466.589C664.422 474.406 668.255 476.589 675.37 479.078C702.875 488.698 731.146 488.161 760.917 485.865C753.698 493.578 745.229 497.042 736.833 499.943C710.302 509.12 683.073 511.776 655.646 504.927C648.188 503.068 644.057 504.37 640.333 510.635C636.943 516.349 632.745 521.573 629.125 527.156C620.906 539.813 621.219 540.49 635.886 546.198C661.714 556.24 688.526 557.885 715.802 555.682C718.87 555.438 721.932 555.167 727.875 554.661C714.828 565.328 702.052 570.734 688.573 573.63C663.156 579.094 637.443 580.87 612.521 571.344C604.547 568.302 601.469 571.354 597.969 577.438C551.74 657.781 522.682 743.714 511.875 835.969C505.912 886.901 508.016 937.99 506.396 989.005H381.151C377.057 981.333 380.667 973.354 380.448 965.542C379.964 948.266 380.651 930.984 377.083 913.875C371.422 886.766 348.734 868.375 321.552 870.391C273.589 873.943 229.865 888.469 192.052 919.635C172.531 935.724 156.974 953.38 153.453 979.375C152.974 982.906 151.912 986.318 149.318 989.005H0.088623V989Z" fill="#FFA61F"/>
</g>
<path d="M1029.33 632.658C971.937 632.658 929.708 620.845 902.64 597.22C878.682 576.403 866.703 547.924 866.703 511.783C866.703 475.647 878.682 447.111 902.64 426.179C929.708 402.668 971.937 390.908 1029.33 390.908C1062.99 390.908 1090.83 394.762 1112.83 402.47C1134.84 410.179 1151.94 420.731 1164.12 434.116C1176.31 447.491 1184.4 462.804 1188.39 480.054H1085.97C1075.72 462.043 1056.84 453.033 1029.33 453.033C1005.81 453.033 988.5 459.835 977.39 473.429C968.541 484.22 964.12 497.007 964.12 511.783C964.12 526.564 968.541 539.345 977.39 550.137C988.5 563.72 1005.81 570.512 1029.33 570.512C1056.84 570.512 1075.72 561.45 1085.97 543.325H1188.39C1184.4 560.7 1176.31 576.075 1164.12 589.45C1151.94 602.825 1134.84 613.377 1112.83 621.095C1090.83 628.804 1062.99 632.658 1029.33 632.658Z" fill="white"/>
<path d="M1496.91 627.637H1217.3V395.429H1484.13V452.887H1314.72V489.283H1457.91V533.95H1314.72V570.2H1496.91V627.637Z" fill="white"/>
<path d="M1726.46 627.637H1629.04V517.595L1502.36 395.429H1610.27L1677.75 464.845L1745.06 395.429H1853L1726.46 517.595V627.637Z" fill="white"/>
<path d="M2142.42 627.637H1871.38V395.429H1968.8V570.2H2142.42V627.637Z" fill="white"/>
<path d="M2314.51 632.658C2257.12 632.658 2214.89 620.845 2187.83 597.22C2163.87 576.293 2151.89 547.757 2151.89 511.616C2151.89 475.59 2163.87 447.111 2187.83 426.179C2214.89 402.554 2257.12 390.741 2314.51 390.741C2371.9 390.741 2414.14 402.554 2441.22 426.179C2465.16 447.111 2477.14 475.59 2477.14 511.616C2477.14 547.757 2465.16 576.293 2441.22 597.22C2414.14 620.845 2371.9 632.658 2314.51 632.658ZM2314.51 570.345C2338.04 570.345 2355.3 563.611 2366.3 550.137C2375.15 539.236 2379.58 526.398 2379.58 511.616C2379.58 496.84 2375.15 484.054 2366.3 473.262C2355.3 459.679 2338.04 452.887 2314.51 452.887C2291 452.887 2273.68 459.679 2262.58 473.262C2253.73 484.054 2249.3 496.84 2249.3 511.616C2249.3 526.398 2253.73 539.236 2262.58 550.137C2273.68 563.611 2291 570.345 2314.51 570.345Z" fill="white"/>
<path d="M2850.55 627.637H2734.69L2603.46 470.512V627.637H2506.05V395.429H2621.9L2753.13 551.741V395.429H2850.55V627.637Z" fill="white"/>
<path d="M1013.85 740.332H980.642V835.019H957.08V740.332H923.871V721.394H1013.85V740.332Z" fill="white"/>
<path d="M1102.73 775.186C1106.54 775.186 1109.82 774.707 1112.59 773.748C1115.37 772.779 1117.64 771.446 1119.4 769.748C1121.18 768.056 1122.48 766.061 1123.32 763.769C1124.16 761.467 1124.59 758.951 1124.59 756.227C1124.59 750.852 1122.8 746.681 1119.21 743.707C1115.64 740.738 1110.2 739.248 1102.88 739.248H1090.67V775.186H1102.73ZM1157.8 835.019H1136.57C1132.59 835.019 1129.72 833.509 1127.94 830.477L1106.34 795.623C1105.45 794.264 1104.47 793.269 1103.4 792.644C1102.33 792.019 1100.75 791.707 1098.65 791.707H1090.67V835.019H1067.17V721.394H1102.88C1110.82 721.394 1117.62 722.222 1123.26 723.873C1128.89 725.514 1133.51 727.8 1137.11 730.727C1140.72 733.644 1143.36 737.123 1145.03 741.165C1146.69 745.207 1147.53 749.66 1147.53 754.519C1147.53 758.269 1146.99 761.832 1145.92 765.207C1144.85 768.571 1143.3 771.639 1141.26 774.415C1139.22 777.181 1136.72 779.634 1133.73 781.769C1130.76 783.91 1127.37 785.634 1123.57 786.936C1125.08 787.769 1126.49 788.779 1127.8 789.957C1129.1 791.123 1130.28 792.519 1131.32 794.144L1157.8 835.019Z" fill="white"/>
<path d="M1268.06 791.873L1255.77 757.102C1255.03 755.269 1254.25 753.134 1253.43 750.686C1252.63 748.227 1251.86 745.561 1251.14 742.686C1250.4 745.618 1249.63 748.326 1248.83 750.811C1248.02 753.285 1247.25 755.431 1246.52 757.248L1234.31 791.873H1268.06ZM1307.52 835.019H1289.27C1287.24 835.019 1285.58 834.54 1284.31 833.582C1283.03 832.613 1282.08 831.368 1281.45 829.852L1273.77 808.165H1228.5L1220.83 829.852C1220.3 831.16 1219.38 832.347 1218.08 833.415C1216.79 834.488 1215.15 835.019 1213.16 835.019H1194.75L1239.16 721.394H1263.2L1307.52 835.019Z" fill="white"/>
<path d="M1456.63 721.394L1410.9 835.019H1389.6L1343.85 721.394H1362.81C1364.85 721.394 1366.51 721.884 1367.79 722.852C1369.07 723.811 1370.02 725.05 1370.65 726.561L1395.23 792.019C1396.17 794.477 1397.09 797.16 1398 800.061C1398.92 802.951 1399.77 805.993 1400.56 809.186C1401.24 805.993 1401.98 802.951 1402.79 800.061C1403.59 797.16 1404.47 794.477 1405.42 792.019L1429.85 726.561C1430.36 725.259 1431.29 724.071 1432.63 722.998C1433.96 721.931 1435.61 721.394 1437.6 721.394H1456.63Z" fill="white"/>
<path d="M1529.94 739.79V768.998H1567.84V786.769H1529.94V816.623H1578.65V835.019H1506.28V721.394H1578.65V739.79H1529.94Z" fill="white"/>
<path d="M1702.77 815.915V835.019H1635.34V721.394H1658.84V815.915H1702.77Z" fill="white"/>
<path d="M1817.81 743.165C1817.08 744.363 1816.33 745.238 1815.56 745.79C1814.81 746.332 1813.84 746.602 1812.65 746.602C1811.49 746.602 1810.25 746.201 1808.92 745.394C1807.59 744.592 1806.03 743.717 1804.25 742.769C1802.49 741.826 1800.45 740.951 1798.15 740.144C1795.86 739.342 1793.17 738.936 1790.09 738.936C1784.65 738.936 1780.58 740.154 1777.86 742.582C1775.15 744.998 1773.79 748.165 1773.79 752.082C1773.79 754.597 1774.53 756.675 1776.02 758.311C1777.52 759.951 1779.48 761.373 1781.9 762.582C1784.33 763.779 1787.09 764.847 1790.17 765.79C1793.25 766.738 1796.41 767.769 1799.65 768.894C1802.88 770.009 1806.03 771.321 1809.11 772.832C1812.19 774.347 1814.94 776.259 1817.38 778.561C1819.8 780.852 1821.76 783.66 1823.25 786.977C1824.74 790.3 1825.48 794.332 1825.48 799.082C1825.48 804.248 1824.58 809.092 1822.77 813.602C1820.98 818.118 1818.38 822.061 1814.98 825.436C1811.59 828.8 1807.4 831.446 1802.42 833.373C1797.43 835.3 1791.78 836.269 1785.46 836.269C1781.86 836.269 1778.27 835.899 1774.69 835.165C1771.12 834.446 1767.67 833.431 1764.36 832.123C1761.05 830.821 1757.93 829.259 1755 827.436C1752.09 825.602 1749.53 823.561 1747.34 821.311L1754.23 810.186C1754.8 809.352 1755.55 808.665 1756.48 808.123C1757.42 807.571 1758.42 807.29 1759.46 807.29C1760.88 807.29 1762.37 807.821 1763.94 808.873C1765.51 809.915 1767.3 811.061 1769.34 812.311C1771.38 813.561 1773.74 814.707 1776.42 815.748C1779.11 816.79 1782.34 817.311 1786.11 817.311C1791.58 817.311 1795.81 816.061 1798.81 813.561C1801.83 811.061 1803.34 807.326 1803.34 802.352C1803.34 799.493 1802.59 797.175 1801.09 795.394C1799.6 793.618 1797.65 792.134 1795.25 790.936C1792.85 789.727 1790.11 788.696 1787.02 787.832C1783.95 786.972 1780.8 786.019 1777.56 784.977C1774.33 783.936 1771.17 782.686 1768.09 781.227C1765 779.759 1762.26 777.821 1759.86 775.415C1757.45 773.014 1755.51 770.04 1754.02 766.498C1752.53 762.946 1751.79 758.535 1751.79 753.269C1751.79 749.035 1752.63 744.936 1754.29 740.977C1755.97 737.009 1758.43 733.477 1761.67 730.394C1764.9 727.311 1768.88 724.832 1773.61 722.957C1778.33 721.082 1783.74 720.144 1789.86 720.144C1796.69 720.144 1803.01 721.201 1808.84 723.311C1814.67 725.425 1819.59 728.363 1823.61 732.123L1817.81 743.165Z" fill="white"/>
<path d="M1983.53 783.102C1979.93 785.717 1977.34 788.592 1975.78 791.727C1974.2 794.852 1973.42 798.165 1973.42 801.665C1973.42 804.373 1973.86 806.811 1974.75 808.977C1975.64 811.144 1976.86 812.998 1978.42 814.54C1979.99 816.082 1981.84 817.269 1983.98 818.102C1986.13 818.936 1988.43 819.352 1990.88 819.352C1994.96 819.352 1998.74 818.769 2002.21 817.602C2005.68 816.425 2008.85 814.738 2011.71 812.54L1983.53 783.102ZM2060.19 835.019H2038.96C2037.86 835.019 2036.88 834.972 2036.03 834.873C2035.16 834.764 2034.36 834.556 2033.63 834.248C2032.91 833.931 2032.2 833.514 2031.53 832.998C2030.84 832.472 2030.14 831.811 2029.42 831.019L2023 824.29C2017.99 828.097 2012.46 831.05 2006.42 833.144C2000.39 835.227 1993.93 836.269 1987.05 836.269C1982.61 836.269 1978.25 835.498 1973.96 833.957C1969.68 832.415 1965.87 830.227 1962.53 827.394C1959.19 824.55 1956.5 821.102 1954.46 817.061C1952.43 813.009 1951.42 808.446 1951.42 803.373C1951.42 799.889 1951.97 796.576 1953.07 793.436C1954.16 790.3 1955.71 787.404 1957.71 784.748C1959.72 782.082 1962.1 779.654 1964.84 777.457C1967.59 775.264 1970.61 773.384 1973.9 771.811C1971.23 767.951 1969.31 764.181 1968.13 760.498C1966.96 756.821 1966.38 753.181 1966.38 749.582C1966.38 745.613 1967.11 741.842 1968.57 738.269C1970.03 734.686 1972.13 731.556 1974.9 728.873C1977.68 726.181 1981.09 724.056 1985.13 722.498C1989.17 720.931 1993.78 720.144 1998.96 720.144C2003.75 720.144 2008.03 720.863 2011.8 722.29C2015.56 723.722 2018.74 725.639 2021.36 728.04C2023.97 730.446 2026.01 733.186 2027.5 736.269C2028.99 739.352 2029.88 742.561 2030.19 745.894L2016.42 748.727C2013.86 749.243 2012.01 748.196 2010.86 745.582C2009.82 742.873 2008.36 740.644 2006.5 738.894C2004.66 737.144 2002.14 736.269 1998.96 736.269C1996.97 736.269 1995.2 736.623 1993.63 737.332C1992.06 738.029 1990.74 738.977 1989.67 740.186C1988.6 741.384 1987.79 742.779 1987.23 744.373C1986.69 745.972 1986.42 747.654 1986.42 749.415C1986.42 750.889 1986.56 752.306 1986.84 753.665C1987.13 755.014 1987.6 756.384 1988.25 757.769C1988.91 759.144 1989.78 760.571 1990.88 762.04C1991.97 763.498 1993.31 765.061 1994.88 766.727L2024.09 797.269C2025.71 794.092 2026.99 790.738 2027.92 787.207C2028.86 783.681 2029.49 780.071 2029.82 776.373C2029.97 775.014 2030.42 773.946 2031.17 773.165C2031.93 772.373 2032.97 771.977 2034.28 771.977H2047.82C2047.82 779.186 2046.81 785.998 2044.8 792.415C2042.8 798.832 2039.99 804.738 2036.38 810.123L2060.19 835.019Z" fill="white"/>
<path d="M2268.04 740.332H2234.83V835.019H2211.27V740.332H2178.06V721.394H2268.04V740.332Z" fill="white"/>
<path d="M2431.16 778.165C2431.16 786.472 2429.76 794.175 2426.97 801.269C2424.18 808.368 2420.23 814.498 2415.13 819.665C2410.05 824.832 2403.93 828.894 2396.78 831.852C2389.62 834.8 2381.7 836.269 2372.99 836.269C2364.26 836.269 2356.33 834.8 2349.18 831.852C2342.02 828.894 2335.88 824.832 2330.76 819.665C2325.64 814.498 2321.7 808.368 2318.91 801.269C2316.11 794.175 2314.72 786.472 2314.72 778.165C2314.72 769.863 2316.11 762.175 2318.91 755.102C2321.7 748.035 2325.64 741.915 2330.76 736.748C2335.88 731.571 2342.02 727.509 2349.18 724.561C2356.33 721.618 2364.26 720.144 2372.99 720.144C2381.7 720.144 2389.62 721.618 2396.78 724.561C2403.93 727.509 2410.05 731.576 2415.13 736.769C2420.23 741.967 2424.18 748.102 2426.97 755.186C2429.76 762.259 2431.16 769.915 2431.16 778.165ZM2407.11 778.165C2407.11 772.207 2406.33 766.868 2404.76 762.144C2403.2 757.425 2400.95 753.41 2397.99 750.102C2395.04 746.785 2391.47 744.248 2387.26 742.498C2383.06 740.748 2378.31 739.873 2372.99 739.873C2367.66 739.873 2362.87 740.748 2358.63 742.498C2354.41 744.248 2350.82 746.785 2347.86 750.102C2344.92 753.41 2342.66 757.425 2341.09 762.144C2339.54 766.868 2338.76 772.207 2338.76 778.165C2338.76 784.165 2339.54 789.535 2341.09 794.269C2342.66 798.993 2344.92 802.998 2347.86 806.29C2350.82 809.571 2354.41 812.082 2358.63 813.832C2362.87 815.582 2367.66 816.457 2372.99 816.457C2378.31 816.457 2383.06 815.582 2387.26 813.832C2391.47 812.082 2395.04 809.571 2397.99 806.29C2400.95 802.998 2403.2 798.993 2404.76 794.269C2406.33 789.535 2407.11 784.165 2407.11 778.165Z" fill="white"/>
<path d="M2534.07 816.227C2537.88 816.227 2541.3 815.592 2544.34 814.311C2547.36 813.035 2549.92 811.222 2552 808.873C2554.09 806.514 2555.67 803.665 2556.77 800.332C2557.87 796.988 2558.42 793.222 2558.42 789.04V721.394H2581.92V789.04C2581.92 795.946 2580.8 802.279 2578.59 808.04C2576.36 813.806 2573.19 818.779 2569.07 822.957C2564.95 827.139 2559.95 830.404 2554.04 832.748C2548.14 835.092 2541.48 836.269 2534.07 836.269C2526.65 836.269 2519.97 835.092 2514.04 832.748C2508.13 830.404 2503.11 827.139 2498.98 822.957C2494.86 818.779 2491.68 813.806 2489.46 808.04C2487.25 802.279 2486.15 795.946 2486.15 789.04V721.394H2509.63V789.04C2509.63 793.222 2510.17 796.988 2511.27 800.332C2512.37 803.665 2513.96 806.514 2516.04 808.873C2518.14 811.222 2520.7 813.035 2523.73 814.311C2526.76 815.592 2530.2 816.227 2534.07 816.227Z" fill="white"/>
<path d="M2679.03 775.186C2682.83 775.186 2686.12 774.707 2688.88 773.748C2691.66 772.779 2693.93 771.446 2695.7 769.748C2697.47 768.056 2698.78 766.061 2699.61 763.769C2700.46 761.467 2700.88 758.951 2700.88 756.227C2700.88 750.852 2699.09 746.681 2695.51 743.707C2691.93 740.738 2686.49 739.248 2679.17 739.248H2666.97V775.186H2679.03ZM2734.09 835.019H2712.86C2708.89 835.019 2706.01 833.509 2704.24 830.477L2682.63 795.623C2681.74 794.264 2680.76 793.269 2679.7 792.644C2678.62 792.019 2677.04 791.707 2674.95 791.707H2666.97V835.019H2643.47V721.394H2679.17C2687.12 721.394 2693.91 722.222 2699.55 723.873C2705.18 725.514 2709.8 727.8 2713.4 730.727C2717.01 733.644 2719.65 737.123 2721.32 741.165C2722.99 745.207 2723.82 749.66 2723.82 754.519C2723.82 758.269 2723.28 761.832 2722.22 765.207C2721.14 768.571 2719.59 771.639 2717.55 774.415C2715.52 777.181 2713.01 779.634 2710.03 781.769C2707.05 783.91 2703.66 785.634 2699.86 786.936C2701.37 787.769 2702.78 788.779 2704.09 789.957C2705.39 791.123 2706.57 792.519 2707.61 794.144L2734.09 835.019Z" fill="white"/>
<path d="M2845.91 743.165C2845.17 744.363 2844.42 745.238 2843.66 745.79C2842.91 746.332 2841.94 746.602 2840.75 746.602C2839.59 746.602 2838.35 746.201 2837.02 745.394C2835.69 744.592 2834.13 743.717 2832.35 742.769C2830.59 741.826 2828.55 740.951 2826.25 740.144C2823.96 739.342 2821.27 738.936 2818.19 738.936C2812.75 738.936 2808.67 740.154 2805.96 742.582C2803.25 744.998 2801.89 748.165 2801.89 752.082C2801.89 754.597 2802.63 756.675 2804.12 758.311C2805.62 759.951 2807.58 761.373 2810 762.582C2812.42 763.779 2815.19 764.847 2818.27 765.79C2821.35 766.738 2824.51 767.769 2827.75 768.894C2830.98 770.009 2834.13 771.321 2837.21 772.832C2840.29 774.347 2843.04 776.259 2845.48 778.561C2847.9 780.852 2849.86 783.66 2851.35 786.977C2852.84 790.3 2853.58 794.332 2853.58 799.082C2853.58 804.248 2852.67 809.092 2850.87 813.602C2849.08 818.118 2846.48 822.061 2843.08 825.436C2839.69 828.8 2835.5 831.446 2830.52 833.373C2825.53 835.3 2819.88 836.269 2813.56 836.269C2809.96 836.269 2806.37 835.899 2802.79 835.165C2799.22 834.446 2795.77 833.431 2792.46 832.123C2789.15 830.821 2786.03 829.259 2783.1 827.436C2780.19 825.602 2777.63 823.561 2775.44 821.311L2782.33 810.186C2782.9 809.352 2783.65 808.665 2784.58 808.123C2785.52 807.571 2786.52 807.29 2787.56 807.29C2788.98 807.29 2790.47 807.821 2792.04 808.873C2793.61 809.915 2795.4 811.061 2797.44 812.311C2799.48 813.561 2801.84 814.707 2804.52 815.748C2807.21 816.79 2810.44 817.311 2814.21 817.311C2819.67 817.311 2823.91 816.061 2826.91 813.561C2829.92 811.061 2831.44 807.326 2831.44 802.352C2831.44 799.493 2830.69 797.175 2829.19 795.394C2827.7 793.618 2825.75 792.134 2823.35 790.936C2820.95 789.727 2818.21 788.696 2815.12 787.832C2812.05 786.972 2808.9 786.019 2805.66 784.977C2802.42 783.936 2799.27 782.686 2796.19 781.227C2793.1 779.759 2790.36 777.821 2787.96 775.415C2785.55 773.014 2783.61 770.04 2782.12 766.498C2780.63 762.946 2779.89 758.535 2779.89 753.269C2779.89 749.035 2780.73 744.936 2782.39 740.977C2784.07 737.009 2786.53 733.477 2789.77 730.394C2793 727.311 2796.98 724.832 2801.71 722.957C2806.42 721.082 2811.84 720.144 2817.96 720.144C2824.79 720.144 2831.11 721.201 2836.94 723.311C2842.77 725.425 2847.69 728.363 2851.71 732.123L2845.91 743.165Z" fill="white"/>
</g>
<defs>
<clipPath id="clip0_6_91">
<rect width="3000" height="1000" fill="white"/>
</clipPath>
</defs>
</svg>
